<mxfile host="app.diagrams.net" agent="Mozilla/5.0 (Windows NT 10.0; Win64; x64) AppleWebKit/537.36 (KHTML, like Gecko) Chrome/132.0.0.0 Safari/537.36" version="27.0.9">
  <diagram id="C5RBs43oDa-KdzZeNtuy" name="Page-1">
    <mxGraphModel grid="1" page="1" gridSize="10" guides="1" tooltips="1" connect="1" arrows="1" fold="1" pageScale="1" pageWidth="827" pageHeight="1169" math="0" shadow="0">
      <root>
        <mxCell id="WIyWlLk6GJQsqaUBKTNV-0" />
        <mxCell id="WIyWlLk6GJQsqaUBKTNV-1" parent="WIyWlLk6GJQsqaUBKTNV-0" />
        <mxCell id="IKT9y48lWkDk8ErgsM7a-4" value="Usuario" style="swimlane;childLayout=stackLayout;horizontal=1;startSize=50;horizontalStack=0;rounded=1;fontSize=14;fontStyle=0;strokeWidth=2;resizeParent=0;resizeLast=1;shadow=0;dashed=0;align=center;arcSize=4;whiteSpace=wrap;html=1;" vertex="1" parent="WIyWlLk6GJQsqaUBKTNV-1">
          <mxGeometry x="270" y="730" width="150" height="160" as="geometry">
            <mxRectangle x="40" y="200" width="90" height="50" as="alternateBounds" />
          </mxGeometry>
        </mxCell>
        <mxCell id="IKT9y48lWkDk8ErgsM7a-5" value="+ID: int&lt;div&gt;+nombre: String&lt;/div&gt;&lt;div&gt;+Apellido: String&lt;/div&gt;&lt;div&gt;+Correo : String&lt;/div&gt;&lt;div&gt;+Rol: String&lt;/div&gt;&lt;div&gt;-SubirArchivos&lt;/div&gt;&lt;div&gt;-VerResultados&lt;/div&gt;" style="align=left;strokeColor=none;fillColor=none;spacingLeft=4;spacingRight=4;fontSize=12;verticalAlign=top;resizable=0;rotatable=0;part=1;html=1;whiteSpace=wrap;" vertex="1" parent="IKT9y48lWkDk8ErgsM7a-4">
          <mxGeometry y="50" width="150" height="110" as="geometry" />
        </mxCell>
        <mxCell id="IKT9y48lWkDk8ErgsM7a-6" value="Archivos" style="swimlane;childLayout=stackLayout;horizontal=1;startSize=50;horizontalStack=0;rounded=1;fontSize=14;fontStyle=0;strokeWidth=2;resizeParent=0;resizeLast=1;shadow=0;dashed=0;align=center;arcSize=4;whiteSpace=wrap;html=1;" vertex="1" parent="WIyWlLk6GJQsqaUBKTNV-1">
          <mxGeometry x="580" y="740" width="160" height="140" as="geometry">
            <mxRectangle x="430" y="220" width="90" height="50" as="alternateBounds" />
          </mxGeometry>
        </mxCell>
        <mxCell id="IKT9y48lWkDk8ErgsM7a-7" value="+ID: int&lt;div&gt;+nombre: String&lt;/div&gt;&lt;div&gt;+Contenido: Bytes&lt;/div&gt;&lt;div&gt;+Tipo: String&lt;/div&gt;&lt;div&gt;-Procesar&lt;/div&gt;" style="align=left;strokeColor=none;fillColor=none;spacingLeft=4;spacingRight=4;fontSize=12;verticalAlign=top;resizable=0;rotatable=0;part=1;html=1;whiteSpace=wrap;" vertex="1" parent="IKT9y48lWkDk8ErgsM7a-6">
          <mxGeometry y="50" width="160" height="90" as="geometry" />
        </mxCell>
        <mxCell id="IKT9y48lWkDk8ErgsM7a-15" value="Resultados" style="swimlane;childLayout=stackLayout;horizontal=1;startSize=50;horizontalStack=0;rounded=1;fontSize=14;fontStyle=0;strokeWidth=2;resizeParent=0;resizeLast=1;shadow=0;dashed=0;align=center;arcSize=4;whiteSpace=wrap;html=1;" vertex="1" parent="WIyWlLk6GJQsqaUBKTNV-1">
          <mxGeometry x="310" y="1038" width="160" height="150" as="geometry">
            <mxRectangle x="110" y="880" width="110" height="50" as="alternateBounds" />
          </mxGeometry>
        </mxCell>
        <mxCell id="IKT9y48lWkDk8ErgsM7a-16" value="+ID: int&lt;div&gt;+Año: int&lt;/div&gt;&lt;div&gt;+Ciclo: String&lt;/div&gt;&lt;div&gt;+Modulo: String&lt;/div&gt;&lt;div&gt;+Puntaje: Float&lt;/div&gt;&lt;div&gt;-FiltrarPor&lt;/div&gt;" style="align=left;strokeColor=none;fillColor=none;spacingLeft=4;spacingRight=4;fontSize=12;verticalAlign=top;resizable=0;rotatable=0;part=1;html=1;whiteSpace=wrap;" vertex="1" parent="IKT9y48lWkDk8ErgsM7a-15">
          <mxGeometry y="50" width="160" height="100" as="geometry" />
        </mxCell>
        <mxCell id="IKT9y48lWkDk8ErgsM7a-17" value="Acciones de mejora" style="swimlane;childLayout=stackLayout;horizontal=1;startSize=50;horizontalStack=0;rounded=1;fontSize=14;fontStyle=0;strokeWidth=2;resizeParent=0;resizeLast=1;shadow=0;dashed=0;align=center;arcSize=4;whiteSpace=wrap;html=1;" vertex="1" parent="WIyWlLk6GJQsqaUBKTNV-1">
          <mxGeometry x="600" y="1060" width="160" height="170" as="geometry">
            <mxRectangle x="390" y="860" width="160" height="50" as="alternateBounds" />
          </mxGeometry>
        </mxCell>
        <mxCell id="IKT9y48lWkDk8ErgsM7a-18" value="+ID: int&lt;div&gt;+Descripcion: String&lt;/div&gt;&lt;div&gt;+PropuestaPor: String&lt;/div&gt;&lt;div&gt;+año: int&lt;/div&gt;&lt;div&gt;+Ciclo: string&lt;/div&gt;&lt;div&gt;+modulo: string&lt;/div&gt;&lt;div&gt;-EvaluarImpacto&lt;/div&gt;" style="align=left;strokeColor=none;fillColor=none;spacingLeft=4;spacingRight=4;fontSize=12;verticalAlign=top;resizable=0;rotatable=0;part=1;html=1;whiteSpace=wrap;" vertex="1" parent="IKT9y48lWkDk8ErgsM7a-17">
          <mxGeometry y="50" width="160" height="120" as="geometry" />
        </mxCell>
        <mxCell id="IKT9y48lWkDk8ErgsM7a-48" value="AnalisisEstadistico" style="swimlane;childLayout=stackLayout;horizontal=1;startSize=50;horizontalStack=0;rounded=1;fontSize=14;fontStyle=0;strokeWidth=2;resizeParent=0;resizeLast=1;shadow=0;dashed=0;align=center;arcSize=4;whiteSpace=wrap;html=1;" vertex="1" parent="WIyWlLk6GJQsqaUBKTNV-1">
          <mxGeometry x="1270" y="1070" width="160" height="120" as="geometry" />
        </mxCell>
        <mxCell id="IKT9y48lWkDk8ErgsM7a-49" value="+Modulo: Modulo&lt;div&gt;+Ciclo: CicloAcademico&lt;/div&gt;&lt;div&gt;+Datos: String&lt;/div&gt;" style="align=left;strokeColor=none;fillColor=none;spacingLeft=4;spacingRight=4;fontSize=12;verticalAlign=top;resizable=0;rotatable=0;part=1;html=1;whiteSpace=wrap;" vertex="1" parent="IKT9y48lWkDk8ErgsM7a-48">
          <mxGeometry y="50" width="160" height="70" as="geometry" />
        </mxCell>
        <mxCell id="IKT9y48lWkDk8ErgsM7a-53" value="CIcloAcademico" style="swimlane;childLayout=stackLayout;horizontal=1;startSize=50;horizontalStack=0;rounded=1;fontSize=14;fontStyle=0;strokeWidth=2;resizeParent=0;resizeLast=1;shadow=0;dashed=0;align=center;arcSize=4;whiteSpace=wrap;html=1;" vertex="1" parent="WIyWlLk6GJQsqaUBKTNV-1">
          <mxGeometry x="990" y="1260" width="160" height="100" as="geometry" />
        </mxCell>
        <mxCell id="IKT9y48lWkDk8ErgsM7a-54" value="+Año: int&lt;div&gt;+Periodo: String&lt;/div&gt;" style="align=left;strokeColor=none;fillColor=none;spacingLeft=4;spacingRight=4;fontSize=12;verticalAlign=top;resizable=0;rotatable=0;part=1;html=1;whiteSpace=wrap;" vertex="1" parent="IKT9y48lWkDk8ErgsM7a-53">
          <mxGeometry y="50" width="160" height="50" as="geometry" />
        </mxCell>
        <mxCell id="IKT9y48lWkDk8ErgsM7a-58" value="Modulo" style="swimlane;childLayout=stackLayout;horizontal=1;startSize=50;horizontalStack=0;rounded=1;fontSize=14;fontStyle=0;strokeWidth=2;resizeParent=0;resizeLast=1;shadow=0;dashed=0;align=center;arcSize=4;whiteSpace=wrap;html=1;" vertex="1" parent="WIyWlLk6GJQsqaUBKTNV-1">
          <mxGeometry x="740" y="1470" width="160" height="120" as="geometry" />
        </mxCell>
        <mxCell id="IKT9y48lWkDk8ErgsM7a-59" value="+ID: int&lt;div&gt;+Nombre: String&lt;/div&gt;&lt;div&gt;+Descripcion: String&lt;/div&gt;" style="align=left;strokeColor=none;fillColor=none;spacingLeft=4;spacingRight=4;fontSize=12;verticalAlign=top;resizable=0;rotatable=0;part=1;html=1;whiteSpace=wrap;" vertex="1" parent="IKT9y48lWkDk8ErgsM7a-58">
          <mxGeometry y="50" width="160" height="70" as="geometry" />
        </mxCell>
        <mxCell id="IKT9y48lWkDk8ErgsM7a-71" value="Consulta" style="text;html=1;align=center;verticalAlign=middle;resizable=0;points=[];autosize=1;strokeColor=none;fillColor=none;" vertex="1" parent="WIyWlLk6GJQsqaUBKTNV-1">
          <mxGeometry x="270" y="960" width="70" height="30" as="geometry" />
        </mxCell>
        <mxCell id="IKT9y48lWkDk8ErgsM7a-72" value="Genera" style="text;html=1;align=center;verticalAlign=middle;resizable=0;points=[];autosize=1;strokeColor=none;fillColor=none;" vertex="1" parent="WIyWlLk6GJQsqaUBKTNV-1">
          <mxGeometry x="480" y="1090" width="60" height="30" as="geometry" />
        </mxCell>
        <mxCell id="IKT9y48lWkDk8ErgsM7a-74" value="Asociados&amp;nbsp;" style="text;html=1;align=center;verticalAlign=middle;resizable=0;points=[];autosize=1;strokeColor=none;fillColor=none;" vertex="1" parent="WIyWlLk6GJQsqaUBKTNV-1">
          <mxGeometry x="510" y="1318" width="80" height="30" as="geometry" />
        </mxCell>
        <mxCell id="IKT9y48lWkDk8ErgsM7a-75" value="Asociadas" style="text;html=1;align=center;verticalAlign=middle;resizable=0;points=[];autosize=1;strokeColor=none;fillColor=none;" vertex="1" parent="WIyWlLk6GJQsqaUBKTNV-1">
          <mxGeometry x="790" y="1295" width="80" height="30" as="geometry" />
        </mxCell>
        <mxCell id="IKT9y48lWkDk8ErgsM7a-78" value="Requiere" style="text;html=1;align=center;verticalAlign=middle;resizable=0;points=[];autosize=1;strokeColor=none;fillColor=none;" vertex="1" parent="WIyWlLk6GJQsqaUBKTNV-1">
          <mxGeometry x="980" y="1530" width="70" height="30" as="geometry" />
        </mxCell>
        <mxCell id="IKT9y48lWkDk8ErgsM7a-79" value="Persona" style="swimlane;childLayout=stackLayout;horizontal=1;startSize=50;horizontalStack=0;rounded=1;fontSize=14;fontStyle=0;strokeWidth=2;resizeParent=0;resizeLast=1;shadow=0;dashed=0;align=center;arcSize=4;whiteSpace=wrap;html=1;" vertex="1" parent="WIyWlLk6GJQsqaUBKTNV-1">
          <mxGeometry x="-20" y="750" width="160" height="120" as="geometry" />
        </mxCell>
        <mxCell id="IKT9y48lWkDk8ErgsM7a-80" value="+ID: int&lt;div&gt;+nombre: String&lt;/div&gt;&lt;div&gt;+Apellido: String&lt;/div&gt;&lt;div&gt;&lt;br&gt;&lt;/div&gt;" style="align=left;strokeColor=none;fillColor=none;spacingLeft=4;spacingRight=4;fontSize=12;verticalAlign=top;resizable=0;rotatable=0;part=1;html=1;whiteSpace=wrap;" vertex="1" parent="IKT9y48lWkDk8ErgsM7a-79">
          <mxGeometry y="50" width="160" height="70" as="geometry" />
        </mxCell>
        <mxCell id="IKT9y48lWkDk8ErgsM7a-82" value="Tiene" style="text;html=1;align=center;verticalAlign=middle;resizable=0;points=[];autosize=1;strokeColor=none;fillColor=none;" vertex="1" parent="WIyWlLk6GJQsqaUBKTNV-1">
          <mxGeometry x="180" y="768" width="50" height="30" as="geometry" />
        </mxCell>
        <mxCell id="IKT9y48lWkDk8ErgsM7a-85" value="" style="endArrow=diamondThin;endFill=1;endSize=24;html=1;rounded=0;entryX=1;entryY=0.5;entryDx=0;entryDy=0;exitX=0;exitY=0.5;exitDx=0;exitDy=0;" edge="1" parent="WIyWlLk6GJQsqaUBKTNV-1" source="IKT9y48lWkDk8ErgsM7a-7" target="IKT9y48lWkDk8ErgsM7a-5">
          <mxGeometry width="160" relative="1" as="geometry">
            <mxPoint x="430" y="830" as="sourcePoint" />
            <mxPoint x="590" y="830" as="targetPoint" />
          </mxGeometry>
        </mxCell>
        <mxCell id="IKT9y48lWkDk8ErgsM7a-86" value="" style="endArrow=diamondThin;endFill=1;endSize=24;html=1;rounded=0;entryX=1;entryY=0.5;entryDx=0;entryDy=0;" edge="1" parent="WIyWlLk6GJQsqaUBKTNV-1" target="IKT9y48lWkDk8ErgsM7a-16">
          <mxGeometry width="160" relative="1" as="geometry">
            <mxPoint x="600" y="1140" as="sourcePoint" />
            <mxPoint x="480" y="1160" as="targetPoint" />
          </mxGeometry>
        </mxCell>
        <mxCell id="IKT9y48lWkDk8ErgsM7a-87" value="" style="endArrow=diamondThin;endFill=1;endSize=24;html=1;rounded=0;entryX=0.5;entryY=1;entryDx=0;entryDy=0;exitX=1;exitY=0.5;exitDx=0;exitDy=0;" edge="1" parent="WIyWlLk6GJQsqaUBKTNV-1" source="IKT9y48lWkDk8ErgsM7a-59" target="IKT9y48lWkDk8ErgsM7a-49">
          <mxGeometry width="160" relative="1" as="geometry">
            <mxPoint x="1460" y="1400" as="sourcePoint" />
            <mxPoint x="1300" y="1400" as="targetPoint" />
            <Array as="points">
              <mxPoint x="1350" y="1550" />
            </Array>
          </mxGeometry>
        </mxCell>
        <mxCell id="IKT9y48lWkDk8ErgsM7a-88" value="" style="endArrow=diamondThin;endFill=1;endSize=24;html=1;rounded=0;entryX=0;entryY=1;entryDx=0;entryDy=0;exitX=1;exitY=0.25;exitDx=0;exitDy=0;" edge="1" parent="WIyWlLk6GJQsqaUBKTNV-1" source="IKT9y48lWkDk8ErgsM7a-54" target="IKT9y48lWkDk8ErgsM7a-49">
          <mxGeometry width="160" relative="1" as="geometry">
            <mxPoint x="1640" y="1330" as="sourcePoint" />
            <mxPoint x="1480" y="1330" as="targetPoint" />
            <Array as="points">
              <mxPoint x="1270" y="1323" />
            </Array>
          </mxGeometry>
        </mxCell>
        <mxCell id="IKT9y48lWkDk8ErgsM7a-92" value="" style="endArrow=diamondThin;endFill=0;endSize=24;html=1;rounded=0;entryX=0.5;entryY=1;entryDx=0;entryDy=0;exitX=0;exitY=0.25;exitDx=0;exitDy=0;" edge="1" parent="WIyWlLk6GJQsqaUBKTNV-1" source="IKT9y48lWkDk8ErgsM7a-54" target="IKT9y48lWkDk8ErgsM7a-18">
          <mxGeometry width="160" relative="1" as="geometry">
            <mxPoint x="680" y="1595" as="sourcePoint" />
            <mxPoint x="640" y="1370" as="targetPoint" />
            <Array as="points">
              <mxPoint x="680" y="1323" />
            </Array>
          </mxGeometry>
        </mxCell>
        <mxCell id="IKT9y48lWkDk8ErgsM7a-93" value="" style="endArrow=diamondThin;endFill=0;endSize=24;html=1;rounded=0;entryX=1;entryY=1;entryDx=0;entryDy=0;exitX=0;exitY=0.75;exitDx=0;exitDy=0;" edge="1" parent="WIyWlLk6GJQsqaUBKTNV-1" source="IKT9y48lWkDk8ErgsM7a-54" target="IKT9y48lWkDk8ErgsM7a-16">
          <mxGeometry width="160" relative="1" as="geometry">
            <mxPoint x="360" y="1585" as="sourcePoint" />
            <mxPoint x="320" y="1360" as="targetPoint" />
            <Array as="points">
              <mxPoint x="470" y="1350" />
            </Array>
          </mxGeometry>
        </mxCell>
        <mxCell id="IKT9y48lWkDk8ErgsM7a-94" value="" style="endArrow=diamondThin;endFill=0;endSize=24;html=1;rounded=0;entryX=0;entryY=1;entryDx=0;entryDy=0;exitX=0;exitY=0.5;exitDx=0;exitDy=0;" edge="1" parent="WIyWlLk6GJQsqaUBKTNV-1" source="IKT9y48lWkDk8ErgsM7a-59">
          <mxGeometry width="160" relative="1" as="geometry">
            <mxPoint x="440" y="1415" as="sourcePoint" />
            <mxPoint x="400" y="1190" as="targetPoint" />
            <Array as="points">
              <mxPoint x="400" y="1555" />
            </Array>
          </mxGeometry>
        </mxCell>
        <mxCell id="IKT9y48lWkDk8ErgsM7a-95" value="" style="endArrow=diamondThin;endFill=0;endSize=24;html=1;rounded=0;entryX=0.5;entryY=1;entryDx=0;entryDy=0;exitX=0.25;exitY=0;exitDx=0;exitDy=0;" edge="1" parent="WIyWlLk6GJQsqaUBKTNV-1" source="IKT9y48lWkDk8ErgsM7a-15" target="IKT9y48lWkDk8ErgsM7a-5">
          <mxGeometry width="160" relative="1" as="geometry">
            <mxPoint x="170" y="1385" as="sourcePoint" />
            <mxPoint x="130" y="1160" as="targetPoint" />
            <Array as="points" />
          </mxGeometry>
        </mxCell>
        <mxCell id="IKT9y48lWkDk8ErgsM7a-97" value="Use" style="endArrow=open;endSize=12;dashed=1;html=1;rounded=0;entryX=-0.014;entryY=0.385;entryDx=0;entryDy=0;entryPerimeter=0;exitX=1;exitY=0.25;exitDx=0;exitDy=0;" edge="1" parent="WIyWlLk6GJQsqaUBKTNV-1" source="IKT9y48lWkDk8ErgsM7a-80" target="IKT9y48lWkDk8ErgsM7a-5">
          <mxGeometry width="160" relative="1" as="geometry">
            <mxPoint x="620" y="1120" as="sourcePoint" />
            <mxPoint x="780" y="1120" as="targetPoint" />
          </mxGeometry>
        </mxCell>
      </root>
    </mxGraphModel>
  </diagram>
</mxfile>
